<svg width="40" height="40" viewBox="0 0 40 40" fill="none" xmlns="http://www.w3.org/2000/svg">
<path d="M5 10.8697V28.4784C5 31.3479 7.34783 33.6957 10.2174 33.6957H29.7826C32.6522 33.6957 35 31.3479 35 28.4784V12.8262H7.08696C5.91304 12.8262 5 11.9131 5 10.8044C5 9.76096 5.78261 8.84792 6.82609 8.7827L32.3913 6.30444V12.8262" stroke="white" stroke-width="1.5" stroke-miterlimit="10" stroke-linecap="round" stroke-linejoin="round"/>
<path d="M27.708 18.3333H34.9997V26.6666H27.708C25.3018 26.6666 23.333 24.7916 23.333 22.4999C23.333 20.2083 25.3018 18.3333 27.708 18.3333Z" stroke="white" stroke-width="1.5" stroke-miterlimit="10" stroke-linecap="round" stroke-linejoin="round"/>
<path d="M27.4997 24.1666C28.4202 24.1666 29.1663 23.4204 29.1663 22.4999C29.1663 21.5794 28.4202 20.8333 27.4997 20.8333C26.5792 20.8333 25.833 21.5794 25.833 22.4999C25.833 23.4204 26.5792 24.1666 27.4997 24.1666Z" fill="white"/>
</svg>
