<svg width="16" height="16" viewBox="0 0 16 16" fill="none" xmlns="http://www.w3.org/2000/svg">
<path d="M7.994 2C4.682 2 2 4.688 2 8C2 11.312 4.682 14 7.994 14C11.312 14 14 11.312 14 8C14 4.688 11.312 2 7.994 2ZM12.152 5.6H10.382C10.1942 4.85687 9.91614 4.13954 9.554 3.464C10.6485 3.8408 11.5707 4.59903 12.152 5.6ZM8 3.224C8.498 3.944 8.888 4.742 9.146 5.6H6.854C7.112 4.742 7.502 3.944 8 3.224ZM3.356 9.2C3.26 8.816 3.2 8.414 3.2 8C3.2 7.586 3.26 7.184 3.356 6.8H5.384C5.336 7.196 5.3 7.592 5.3 8C5.3 8.408 5.336 8.804 5.384 9.2H3.356ZM3.848 10.4H5.618C5.81 11.15 6.086 11.87 6.446 12.536C5.35038 12.1613 4.4275 11.4025 3.848 10.4ZM5.618 5.6H3.848C4.4275 4.59751 5.35038 3.83874 6.446 3.464C6.08386 4.13954 5.80579 4.85687 5.618 5.6ZM8 12.776C7.502 12.056 7.112 11.258 6.854 10.4H9.146C8.888 11.258 8.498 12.056 8 12.776ZM9.404 9.2H6.596C6.542 8.804 6.5 8.408 6.5 8C6.5 7.592 6.542 7.19 6.596 6.8H9.404C9.458 7.19 9.5 7.592 9.5 8C9.5 8.408 9.458 8.804 9.404 9.2ZM9.554 12.536C9.914 11.87 10.19 11.15 10.382 10.4H12.152C11.5707 11.401 10.6485 12.1592 9.554 12.536ZM10.616 9.2C10.664 8.804 10.7 8.408 10.7 8C10.7 7.592 10.664 7.196 10.616 6.8H12.644C12.74 7.184 12.8 7.586 12.8 8C12.8 8.414 12.74 8.816 12.644 9.2H10.616Z" fill="white"/>
</svg>
