<svg width="40" height="40" viewBox="0 0 40 40" fill="none" xmlns="http://www.w3.org/2000/svg">
<path d="M31.9362 26.7892C26.348 26.7892 14.2402 26.7892 10.5147 26.7892C5.85781 26.7892 4.99819 32.6569 11.4461 32.6569M31.9362 26.7892C30.0735 27.6275 30.6945 31.8186 31.9363 32.6569C29.7202 32.6569 23.1687 32.6569 19.7041 32.6569M31.9362 26.7892V6.83333C31.9362 6.28105 31.4908 5.83333 30.9385 5.83333C25.1096 5.83333 14.9612 5.83333 11.4461 5.83333C6.78928 5.83333 6.66704 9.18627 6.66704 12.5392C6.66704 13.8804 6.66699 23.6696 6.66699 29.8167" stroke="white" stroke-width="1.7" stroke-linecap="round" stroke-linejoin="round"/>
<path d="M18.3311 26.833L18.3311 35.833L14.9977 33.133L11.6644 35.833L11.6644 26.833" stroke="white" stroke-width="1.7" stroke-linecap="round" stroke-linejoin="round"/>
</svg>
