<svg width="24" height="24" viewBox="0 0 24 24" fill="none" xmlns="http://www.w3.org/2000/svg">
<path d="M7.25 0H4.625V2.66667H7.25V0Z" fill="#FDA843"/>
<path d="M7.25 2.66699H4.625V5.33366H7.25V2.66699Z" fill="#FDA843"/>
<path d="M7.25 5.33301H4.625V7.99967H7.25V5.33301Z" fill="#FDA843"/>
<path d="M7.25 8H4.625V10.6667H7.25V8Z" fill="#FDA843"/>
<path d="M9.875 0H7.25V2.66667H9.875V0Z" fill="#FDA843"/>
<path d="M9.875 2.66699H7.25V5.33366H9.875V2.66699Z" fill="#FDA843"/>
<path d="M9.875 5.33301H7.25V7.99967H9.875V5.33301Z" fill="#FDA843"/>
<path d="M9.875 8H7.25V10.6667H9.875V8Z" fill="#FDA843"/>
<path d="M12.5 0H9.875V2.66667H12.5V0Z" fill="#FDA843"/>
<path d="M12.5 2.66699H9.875V5.33366H12.5V2.66699Z" fill="#FDA843"/>
<path d="M12.5 5.33301H9.875V7.99967H12.5V5.33301Z" fill="#FDA843"/>
<path d="M12.5 8H9.875V10.6667H12.5V8Z" fill="#FDA843"/>
<path d="M15.125 0H12.5V2.66667H15.125V0Z" fill="#FDA843"/>
<path d="M15.125 2.66699H12.5V5.33366H15.125V2.66699Z" fill="#FDA843"/>
<path d="M15.125 5.33301H12.5V7.99967H15.125V5.33301Z" fill="#FDA843"/>
<path d="M15.125 8H12.5V10.6667H15.125V8Z" fill="#FDA843"/>
<path d="M7.25 10.667H4.625V13.3336H7.25V10.667Z" fill="#FDA843"/>
<path d="M7.25 13.333H4.625V15.9997H7.25V13.333Z" fill="#FDA843"/>
<path d="M9.875 10.667H7.25V13.3336H9.875V10.667Z" fill="#FDA843"/>
<path d="M9.875 13.333H7.25V15.9997H9.875V13.333Z" fill="#FDA843"/>
<path d="M12.5 10.667H9.875V13.3336H12.5V10.667Z" fill="#FDA843"/>
<path d="M12.5 13.333H9.875V15.9997H12.5V13.333Z" fill="#FDA843"/>
<path d="M15.125 10.667H12.5V13.3336H15.125V10.667Z" fill="#FDA843"/>
<path d="M15.125 13.333H12.5V15.9997H15.125V13.333Z" fill="#FDA843"/>
<path d="M17.75 0H15.125V2.66667H17.75V0Z" fill="#FDA843"/>
<path d="M17.75 2.66699H15.125V5.33366H17.75V2.66699Z" fill="#FDA843"/>
<path d="M17.75 5.33301H15.125V7.99967H17.75V5.33301Z" fill="#FDA843"/>
<path d="M17.75 8H15.125V10.6667H17.75V8Z" fill="#FDA843"/>
<path d="M17.75 10.667H15.125V13.3336H17.75V10.667Z" fill="#FDA843"/>
<path d="M17.75 13.333H15.125V15.9997H17.75V13.333Z" fill="#FDA843"/>
<path d="M20.375 0H17.75V2.66667H20.375V0Z" fill="#FDA843"/>
<path d="M20.375 2.66699H17.75V5.33366H20.375V2.66699Z" fill="#FDA843"/>
<path d="M20.375 5.33301H17.75V7.99967H20.375V5.33301Z" fill="#FDA843"/>
<path d="M20.375 8H17.75V10.6667H20.375V8Z" fill="#FDA843"/>
<path d="M20.375 10.667H17.75V13.3336H20.375V10.667Z" fill="#FDA843"/>
<path d="M20.375 13.333H17.75V15.9997H20.375V13.333Z" fill="#FDA843"/>
<path d="M7.25 16H4.625V18.6667H7.25V16Z" fill="#FDA843"/>
<path d="M7.25 18.667H4.625V21.3337H7.25V18.667Z" fill="#FDA843"/>
<path d="M4.625 0H2V2.66667H4.625V0Z" fill="#EFEFEF"/>
<path d="M4.625 2.66699H2V5.33366H4.625V2.66699Z" fill="#FDA843"/>
<path d="M4.625 5.33301H2V7.99967H4.625V5.33301Z" fill="#EFEFEF"/>
<path d="M4.625 8H2V10.6667H4.625V8Z" fill="#FDA843"/>
<path d="M4.625 10.667H2V13.3336H4.625V10.667Z" fill="#EFEFEF"/>
<path d="M4.625 13.333H2V15.9997H4.625V13.333Z" fill="#FDA843"/>
<path d="M4.625 16H2V18.6667H4.625V16Z" fill="#EFEFEF"/>
<path d="M4.625 18.667H2V21.3337H4.625V18.667Z" fill="#FDA843"/>
<path d="M4.625 21.333H2V23.9997H4.625V21.333Z" fill="#EFEFEF"/>
<path d="M7.25 21.333H4.625V23.9997H7.25V21.333Z" fill="#EFEFEF"/>
<path d="M9.875 21.333H7.25V23.9997H9.875V21.333Z" fill="#EFEFEF"/>
<path d="M12.5 21.333H9.875V23.9997H12.5V21.333Z" fill="#EFEFEF"/>
<path d="M15.125 21.333H12.5V23.9997H15.125V21.333Z" fill="#EFEFEF"/>
<path d="M17.75 21.333H15.125V23.9997H17.75V21.333Z" fill="#EFEFEF"/>
<path d="M20.375 21.333H17.75V23.9997H20.375V21.333Z" fill="#EFEFEF"/>
<path d="M23 21.333H20.375V23.9997H23V21.333Z" fill="#EFEFEF"/>
<path d="M9.875 16H7.25V18.6667H9.875V16Z" fill="#FDA843"/>
<path d="M9.875 18.667H7.25V21.3337H9.875V18.667Z" fill="#FDA843"/>
<path d="M12.5 16H9.875V18.6667H12.5V16Z" fill="#FDA843"/>
<path d="M12.5 18.667H9.875V21.3337H12.5V18.667Z" fill="#FDA843"/>
<path d="M15.125 16H12.5V18.6667H15.125V16Z" fill="#FDA843"/>
<path d="M15.125 18.667H12.5V21.3337H15.125V18.667Z" fill="#FDA843"/>
<path d="M17.75 16H15.125V18.6667H17.75V16Z" fill="#FDA843"/>
<path d="M17.75 18.667H15.125V21.3337H17.75V18.667Z" fill="#FDA843"/>
<path d="M20.375 16H17.75V18.6667H20.375V16Z" fill="#FDA843"/>
<path d="M20.375 18.667H17.75V21.3337H20.375V18.667Z" fill="#FDA843"/>
<path d="M23 0H20.375V2.66667H23V0Z" fill="#FDA843"/>
<path d="M23 2.66699H20.375V5.33366H23V2.66699Z" fill="#FDA843"/>
<path d="M23 5.33301H20.375V7.99967H23V5.33301Z" fill="#FDA843"/>
<path d="M23 8H20.375V10.6667H23V8Z" fill="#FDA843"/>
<path d="M23 10.667H20.375V13.3336H23V10.667Z" fill="#FDA843"/>
<path d="M23 13.333H20.375V15.9997H23V13.333Z" fill="#FDA843"/>
<path d="M23 16H20.375V18.6667H23V16Z" fill="#FDA843"/>
<path d="M23 18.667H20.375V21.3337H23V18.667Z" fill="#FDA843"/>
</svg>
