<svg width="24" height="24" viewBox="0 0 24 24" fill="none" xmlns="http://www.w3.org/2000/svg">
<path d="M23.6425 4.93699C22.8075 5.30699 21.9105 5.55699 20.9675 5.66999C21.9405 5.08778 22.6685 4.17145 23.0155 3.09199C22.1014 3.63497 21.1009 4.01718 20.0575 4.22199C19.3559 3.47285 18.4266 2.97631 17.4138 2.80946C16.4011 2.64261 15.3616 2.81478 14.4568 3.29924C13.5519 3.7837 12.8323 4.55335 12.4097 5.48869C11.9871 6.42403 11.8851 7.47274 12.1195 8.47199C10.2672 8.37898 8.45515 7.89753 6.80095 7.05889C5.14674 6.22025 3.68736 5.04315 2.51752 3.60399C2.11752 4.29399 1.88752 5.09399 1.88752 5.94599C1.88708 6.71298 2.07596 7.46823 2.4374 8.14472C2.79885 8.82121 3.32168 9.39802 3.95952 9.82399C3.2198 9.80045 2.4964 9.60057 1.84952 9.24099V9.30098C1.84945 10.3767 2.22156 11.4194 2.90271 12.252C3.58386 13.0846 4.53209 13.6559 5.58652 13.869C4.90031 14.0547 4.18086 14.0821 3.48252 13.949C3.78002 14.8746 4.35952 15.684 5.13989 16.2639C5.92026 16.8438 6.86244 17.1652 7.83452 17.183C6.18436 18.4784 4.14641 19.1811 2.04852 19.178C1.6769 19.1781 1.3056 19.1564 0.936523 19.113C3.066 20.4822 5.54486 21.2088 8.07652 21.206C16.6465 21.206 21.3315 14.108 21.3315 7.95199C21.3315 7.75199 21.3265 7.54998 21.3175 7.34999C22.2288 6.69096 23.0154 5.87488 23.6405 4.93999L23.6425 4.93699Z" fill="#F8F8F8"/>
</svg>
