<svg width="32" height="32" viewBox="0 0 32 32" fill="none" xmlns="http://www.w3.org/2000/svg">
<path d="M19.4969 10.5859C19.4969 13.261 17.3424 15.4219 14.694 15.4219C12.0456 15.4219 9.89111 13.261 9.89111 10.5859C9.89111 7.91092 12.0456 5.75 14.694 5.75C17.3424 5.75 19.4969 7.91092 19.4969 10.5859Z" fill="#C0A46B" stroke="#C0A46B" stroke-width="1.5" stroke-miterlimit="10"/>
<path fill-rule="evenodd" clip-rule="evenodd" d="M28.5383 19.6189C28.9066 19.9163 28.9642 20.4559 28.6668 20.8243L21.7474 29.3957C21.5733 29.6114 21.3057 29.7295 21.029 29.7129C20.7523 29.6962 20.5008 29.5468 20.3538 29.3118L16.9876 23.9298C16.7366 23.5284 16.8584 22.9996 17.2598 22.7485C17.6611 22.4975 18.19 22.6194 18.441 23.0207L21.1692 27.3828L27.333 19.7475C27.6303 19.3791 28.17 19.3216 28.5383 19.6189Z" fill="#C0A46B"/>
<path fill-rule="evenodd" clip-rule="evenodd" d="M12.6996 18C8.83181 18 5.58257 20.9082 5.15544 24.7523C5.02222 25.9514 5.9608 27 7.16721 27H15.6836C16.4716 27 16.95 26.131 16.5286 25.4652L15.8956 24.465C15.3893 23.665 15.2004 22.3225 16.5 21.5C17.5 20.8671 18.9937 21.4218 19.5 22.2218L20.6727 24.0747C21.0356 24.6482 21.8522 24.7012 22.2863 24.1795L23.0827 23.2225C23.5889 22.6141 23.7077 21.7493 23.2402 21.1107C21.852 19.2143 19.611 18 17.1118 18H12.6996Z" fill="#C0A46B"/>
</svg>
