<svg width="24" height="24" viewBox="0 0 24 24" fill="none" xmlns="http://www.w3.org/2000/svg">
<path d="M8.42481 19.4446C12.2218 19.4446 15.2998 16.3354 15.2998 12.5001C15.2998 8.6648 12.2218 5.55566 8.42481 5.55566C4.62785 5.55566 1.5498 8.6648 1.5498 12.5001C1.5498 16.3354 4.62785 19.4446 8.42481 19.4446Z" fill="currentColor"/>
<path d="M16.5777 6.30469C15.6281 6.30469 14.7319 6.55083 13.9414 6.98663C15.5428 8.28687 16.5777 10.3483 16.5777 12.6689C16.5777 14.8686 15.6481 16.8352 14.1874 18.1418C14.9158 18.4975 15.7251 18.696 16.5777 18.696C19.7676 18.696 22.3532 15.9223 22.3532 12.5003C22.3532 9.0784 19.7676 6.30469 16.5777 6.30469Z" fill="currentColor"/>
</svg>
