<svg width="25" height="24" viewBox="0 0 25 24" fill="none" xmlns="http://www.w3.org/2000/svg">
<path d="M12.6002 8.87628C10.8799 8.87628 9.47599 10.2802 9.47599 12.0005C9.47599 13.7208 10.8799 15.1247 12.6002 15.1247C14.3205 15.1247 15.7244 13.7208 15.7244 12.0005C15.7244 10.2802 14.3205 8.87628 12.6002 8.87628ZM21.9705 12.0005C21.9705 10.7068 21.9822 9.42472 21.9096 8.13331C21.8369 6.63331 21.4947 5.30206 20.3979 4.20519C19.2986 3.10597 17.9697 2.76613 16.4697 2.69347C15.176 2.62081 13.894 2.63253 12.6025 2.63253C11.3088 2.63253 10.0268 2.62081 8.73536 2.69347C7.23536 2.76613 5.90411 3.10831 4.80724 4.20519C3.70802 5.30441 3.36818 6.63331 3.29552 8.13331C3.22287 9.42706 3.23458 10.7091 3.23458 12.0005C3.23458 13.2919 3.22287 14.5763 3.29552 15.8677C3.36818 17.3677 3.71036 18.6989 4.80724 19.7958C5.90646 20.895 7.23536 21.2349 8.73536 21.3075C10.0291 21.3802 11.3111 21.3685 12.6025 21.3685C13.8963 21.3685 15.1783 21.3802 16.4697 21.3075C17.9697 21.2349 19.301 20.8927 20.3979 19.7958C21.4971 18.6966 21.8369 17.3677 21.9096 15.8677C21.9846 14.5763 21.9705 13.2943 21.9705 12.0005ZM12.6002 16.8075C9.94005 16.8075 7.79318 14.6607 7.79318 12.0005C7.79318 9.34035 9.94005 7.19347 12.6002 7.19347C15.2604 7.19347 17.4072 9.34035 17.4072 12.0005C17.4072 14.6607 15.2604 16.8075 12.6002 16.8075ZM17.6041 8.11925C16.983 8.11925 16.4815 7.61769 16.4815 6.9966C16.4815 6.3755 16.983 5.87394 17.6041 5.87394C18.2252 5.87394 18.7268 6.3755 18.7268 6.9966C18.727 7.14408 18.698 7.29015 18.6417 7.42644C18.5853 7.56273 18.5026 7.68656 18.3984 7.79085C18.2941 7.89513 18.1702 7.97782 18.034 8.03417C17.8977 8.09053 17.7516 8.11944 17.6041 8.11925Z" fill="white"/>
</svg>
