<svg width="25" height="24" viewBox="0 0 25 24" fill="none" xmlns="http://www.w3.org/2000/svg">
<g clip-path="url(#clip0_1027:1321)">
<path d="M7.68611 13.5073C8.3271 13.5882 8.68175 13.3288 8.9375 12.7617C9.24074 12.0891 9.60451 11.4478 9.5928 10.6768C9.57132 9.26772 9.08912 7.98182 8.54705 6.71286C8.44488 6.47432 8.33491 6.48801 8.16636 6.75197C6.81867 8.85972 5.47228 10.9688 4.12784 13.0791C3.93457 13.3829 3.98858 13.4884 4.34389 13.4924C4.98227 13.5002 5.62065 13.4943 6.25903 13.4943C6.25903 13.495 6.25903 13.495 6.25903 13.4956C6.73537 13.4963 7.21758 13.4487 7.68611 13.5073Z" fill="currentColor"/>
<path d="M2.80441 15.8028C2.95603 18.7455 5.30522 20.9836 8.25115 20.9888C9.61446 20.9914 10.9778 20.9894 12.3417 20.9894C13.6946 20.9894 15.0482 20.9568 16.3991 20.9999C17.4507 21.0331 18.2284 20.5886 18.872 19.815C19.4212 19.1541 19.8695 18.4241 20.3036 17.687C20.7396 16.9479 21.2862 16.3164 22.0821 15.9912C22.6599 15.7546 22.8636 15.4079 22.7849 14.8056C22.7322 14.4009 22.7335 14.3651 22.3417 14.4772C21.1457 14.82 19.9567 15.1902 18.7529 15.5024C18.0318 15.6894 17.3896 15.9586 16.9243 16.5693C16.8143 16.7133 16.6588 16.8228 16.5208 16.9447C16.2429 17.1904 15.9117 17.3318 15.548 17.3468C14.9968 17.3696 14.4449 17.3566 13.8931 17.3585C13.7057 17.3592 13.6165 17.2679 13.6172 17.0789C13.6191 16.6455 13.6217 16.2121 13.6146 15.7787C13.6107 15.5506 13.7285 15.4711 13.9348 15.4711C14.2269 15.4711 14.5191 15.4633 14.8113 15.4698C15.0176 15.4743 15.1848 15.4144 15.3378 15.2684C16.0549 14.5853 16.6972 13.8417 17.2087 12.9912C17.8308 11.9568 17.9616 10.886 17.452 9.76371C16.6711 8.04505 15.3657 6.77544 13.9081 5.64596C13.6875 5.47455 13.6016 5.32335 13.6107 5.06395C13.6237 4.68528 13.6263 4.30466 13.6061 3.92665C13.5755 3.36875 13.1688 2.97901 12.6717 3.00247C12.179 3.02528 11.8335 3.41763 11.8224 3.96901C11.8179 4.19647 11.814 4.42459 11.8218 4.65139C11.8302 4.90036 11.7417 4.98313 11.4893 4.91014C10.9179 4.74394 10.3426 4.59143 9.76608 4.44349C9.65025 4.41351 9.50513 4.30401 9.40752 4.43827C9.32618 4.54972 9.44461 4.66182 9.49667 4.76284C10.1689 6.06764 10.737 7.41285 11.0682 8.84735C11.3559 10.0909 11.4522 11.3286 10.9348 12.5493C10.5567 13.4422 10.0589 14.2647 9.52986 15.0716C9.47194 15.1595 9.36913 15.2469 9.41858 15.3609C9.4765 15.4965 9.62096 15.4652 9.7355 15.4659C10.3088 15.4704 10.8828 15.4743 11.4561 15.4685C11.7138 15.4659 11.8315 15.5669 11.8237 15.8348C11.8114 16.2245 11.8146 16.6149 11.8224 17.0053C11.827 17.2458 11.7404 17.367 11.484 17.3638C10.7917 17.3559 10.0986 17.38 9.40687 17.354C8.5134 17.3207 7.821 16.6436 7.78196 15.7618C7.76699 15.4255 7.63554 15.3401 7.32709 15.3427C5.96378 15.3531 4.60047 15.3459 3.23716 15.3479C2.8376 15.3485 2.78424 15.4098 2.80441 15.8028Z" fill="currentColor"/>
</g>
<defs>
<clipPath id="clip0_1027:1321">
<rect width="20" height="18" fill="currentColor" transform="translate(2.7998 3)"/>
</clipPath>
</defs>
</svg>
