<svg width="40" height="40" viewBox="0 0 40 40" fill="none" xmlns="http://www.w3.org/2000/svg">
<g clip-path="url(#clip0_936:1131)">
<path d="M12.7986 31C12.4319 31.0035 12.1934 30.779 11.9585 30.5544C8.8148 27.572 5.66929 24.593 2.53281 21.6035C1.81554 20.9211 1.82276 20.6597 2.55268 19.9474C3.05856 19.4544 3.606 19.0035 4.12815 18.5246C4.90324 17.8158 5.24832 17.7948 6.01979 18.5264C7.75245 20.1685 9.46884 21.8299 11.1907 23.4842C12.7643 24.9948 12.7571 24.9878 14.3578 23.4649C16.0887 21.8211 17.8322 20.1895 19.5739 18.5562C20.3779 17.8018 20.7193 17.7895 21.5288 18.5597C23.4945 20.4281 25.4439 22.3141 27.4024 24.1895C28.2389 24.9895 28.2389 24.9807 29.0989 24.1667C31.09 22.2825 33.0846 20.4018 35.081 18.5246C35.8615 17.7913 36.1867 17.7913 36.96 18.5193C37.5183 19.0439 38.0603 19.586 38.6168 20.1141C39.1173 20.5913 39.1353 21.0649 38.6294 21.5457C35.4442 24.5702 32.2589 27.593 29.0718 30.6141C28.472 31.1825 27.9408 31.0579 27.3699 30.5106C25.3283 28.5527 23.2397 26.6404 21.2162 24.6649C20.6507 24.1141 20.3164 24.1404 19.7726 24.679C17.825 26.6053 15.8303 28.4878 13.852 30.3842C13.552 30.672 13.2539 30.9649 12.7986 31Z" fill="white"/>
<path d="M32.349 14.5983C32.34 14.6491 32.3508 14.7544 32.3038 14.8176C31.5522 15.8386 30.6145 16.6983 29.6028 17.4579C29.2053 17.7562 28.8367 17.2702 28.5621 16.986C27.1818 15.5526 25.5467 14.4965 23.59 13.9965C19.505 12.9526 15.8825 13.8193 12.8038 16.6439C11.4704 17.8667 11.6638 17.9035 10.3105 16.6018C9.90762 16.214 9.49568 15.8333 9.10001 15.4369C8.42791 14.7614 8.42429 14.4246 9.10904 13.7491C11.7631 11.1281 14.9592 9.51054 18.7263 9.10528C23.8809 8.55264 28.264 10.1737 31.8865 13.7509C32.1195 13.9807 32.3508 14.2105 32.349 14.5983Z" fill="white"/>
</g>
<defs>
<clipPath id="clip0_936:1131">
<rect width="37" height="22" fill="white" transform="translate(2 9)"/>
</clipPath>
</defs>
</svg>
